<svg id="Layer_1" data-name="Layer 1" xmlns="http://www.w3.org/2000/svg" viewBox="0 0 1140.61 134.62"><defs><style>.cls-1{fill:#fff;}</style></defs><path class="cls-1" d="M842.57,516.43a40.16,40.16,0,0,1,15.58,17.28q5.46,11.2,5.47,26.55t-5.51,26.46A40.69,40.69,0,0,1,842.53,604q-10.08,6.11-23.88,6.1T794.73,604a40.09,40.09,0,0,1-15.58-17.28q-5.48-11.21-5.48-26.49t5.54-26.55a40.55,40.55,0,0,1,15.62-17.28q10.06-6.07,23.82-6.08T842.57,516.43ZM802.7,527.67a29.47,29.47,0,0,0-10.48,12.84q-3.74,8.34-3.73,19.75a48,48,0,0,0,3.7,19.62,29.54,29.54,0,0,0,10.44,12.88,30.63,30.63,0,0,0,32.06,0,29.13,29.13,0,0,0,10.44-12.88,48.34,48.34,0,0,0,3.67-19.62q0-11.4-3.67-19.75a28.85,28.85,0,0,0-10.44-12.84,30.62,30.62,0,0,0-32,0Z" transform="translate(-389.69 -475.96)"/><path class="cls-1" d="M937.68,608.37H924.27V596.69h-.47a22.58,22.58,0,0,1-5,7,21.2,21.2,0,0,1-7.24,4.4,27.7,27.7,0,0,1-9.64,1.54,26.58,26.58,0,0,1-13.25-3.14,20.46,20.46,0,0,1-8.47-9,31.22,31.22,0,0,1-2.91-14v-45.7h13.88v42.9q0,8.28,3.77,12.58t11.51,4.3a17.83,17.83,0,0,0,9.31-2.3,15.1,15.1,0,0,0,5.87-6.47,22.16,22.16,0,0,0,2-9.84V537.78h14Z" transform="translate(-389.69 -475.96)"/><path class="cls-1" d="M972,520.76v17h13.95v11.14H972v39c0,3.25.73,5.64,2.17,7.18s3.71,2.3,6.77,2.3c.58,0,1.18,0,1.81-.07l1.76-.13c.56-.05,1-.09,1.44-.14v11.15c-.58.09-1.29.17-2.14.26s-1.75.17-2.73.24-2,.1-2.94.1q-10.8,0-15.48-4.41T958,589.82v-40.9H947.35V537.78H958v-17Z" transform="translate(-389.69 -475.96)"/><path class="cls-1" d="M1003.47,548.92H993.32v-11h10.15v-7.27q0-10.35,5.1-15.32t15.78-5c1.47,0,2.94.06,4.4.17s2.72.26,3.74.43v10.48c-.71,0-1.53-.12-2.47-.23a25,25,0,0,0-2.93-.17q-5.07,0-7.41,2.5t-2.34,7.44v6.94H1032v11h-14.48v59.45h-14.07Z" transform="translate(-389.69 -475.96)"/><path class="cls-1" d="M1046.2,523.4a8.35,8.35,0,0,1,0-11.78,8.46,8.46,0,0,1,11.81,0,8.34,8.34,0,0,1-11.81,11.78Zm-1.1,14.38h14v70.59h-14Z" transform="translate(-389.69 -475.96)"/><path class="cls-1" d="M1093.88,520.76v17h13.94v11.14h-13.94v39q0,4.88,2.16,7.18t6.78,2.3c.57,0,1.17,0,1.8-.07l1.77-.13c.55-.05,1-.09,1.43-.14v11.15c-.58.09-1.29.17-2.14.26s-1.75.17-2.73.24-2,.1-2.94.1q-10.8,0-15.48-4.41t-4.67-14.61v-40.9h-10.61V537.78h10.61v-17Z" transform="translate(-389.69 -475.96)"/><path class="cls-1" d="M1162.6,582.15a16.06,16.06,0,0,0,3.84,8.34,19.54,19.54,0,0,0,8.14,5.4,32.6,32.6,0,0,0,11.44,1.87,28.4,28.4,0,0,0,11-2,18.21,18.21,0,0,0,7.51-5.4,12.37,12.37,0,0,0,2.74-7.91,12,12,0,0,0-4.21-9.37q-4.2-3.71-13.94-5.77l-11-2.47q-14.08-3.07-20.65-9.71t-6.57-17a24.5,24.5,0,0,1,4.4-14.51,29,29,0,0,1,12.28-9.74,44.12,44.12,0,0,1,18.15-3.51,42.09,42.09,0,0,1,17.68,3.54,29.52,29.52,0,0,1,12.17,9.84,26.36,26.36,0,0,1,4.71,14.65H1206.1a16.17,16.17,0,0,0-3.23-8.41,17.82,17.82,0,0,0-7.14-5.37,26,26,0,0,0-10.31-1.9,27.61,27.61,0,0,0-10.31,1.8,16.34,16.34,0,0,0-7,5.07,12.46,12.46,0,0,0-2.54,7.87,11.12,11.12,0,0,0,4.07,8.78q4.08,3.49,13.55,5.64l10.54,2.26q15.07,3.35,21.65,9.68t6.58,16.81a27.3,27.3,0,0,1-4.48,15.68,28.73,28.73,0,0,1-12.71,10.21,53.82,53.82,0,0,1-38.26.17,30.45,30.45,0,0,1-12.85-9.71,26.89,26.89,0,0,1-5.23-14.81Z" transform="translate(-389.69 -475.96)"/><path class="cls-1" d="M1253.61,520.76v17h13.94v11.14h-13.94v39q0,4.88,2.17,7.18t6.77,2.3c.58,0,1.18,0,1.8-.07l1.77-.13c.55-.05,1-.09,1.43-.14v11.15c-.58.09-1.29.17-2.13.26s-1.76.17-2.74.24-2,.1-2.93.1q-10.82,0-15.48-4.41t-4.67-14.61v-40.9H1229V537.78h10.61v-17Z" transform="translate(-389.69 -475.96)"/><path class="cls-1" d="M1340.68,608.37h-13.41V596.69h-.47a22.58,22.58,0,0,1-5,7,21.2,21.2,0,0,1-7.24,4.4,27.7,27.7,0,0,1-9.64,1.54,26.61,26.61,0,0,1-13.25-3.14,20.46,20.46,0,0,1-8.47-9,31.22,31.22,0,0,1-2.9-14v-45.7h13.87v42.9q0,8.28,3.77,12.58t11.51,4.3a17.83,17.83,0,0,0,9.31-2.3,15,15,0,0,0,5.87-6.47,22.16,22.16,0,0,0,2-9.84V537.78h14Z" transform="translate(-389.69 -475.96)"/><path class="cls-1" d="M1367.4,605.07a29.44,29.44,0,0,1-10.4-12.71,52.16,52.16,0,0,1,0-38.64,29.55,29.55,0,0,1,10.37-12.64,27,27,0,0,1,15.48-4.5,27.74,27.74,0,0,1,9.37,1.53,22.66,22.66,0,0,1,7.54,4.4,22.89,22.89,0,0,1,5.24,6.81h.54V511h13.94v97.42H1406V596.56h-.46a23.62,23.62,0,0,1-5.48,6.87,25.21,25.21,0,0,1-7.67,4.51,26.24,26.24,0,0,1-9.34,1.63A27.42,27.42,0,0,1,1367.4,605.07Zm9.11-53.61a19,19,0,0,0-6.57,8.47,33.55,33.55,0,0,0-2.3,13.08,34,34,0,0,0,2.3,13.14,19,19,0,0,0,6.57,8.54,17.2,17.2,0,0,0,10.14,3,16.91,16.91,0,0,0,10-3,19.55,19.55,0,0,0,6.61-8.57,33.36,33.36,0,0,0,2.37-13.11,32.44,32.44,0,0,0-2.37-12.91,20,20,0,0,0-6.64-8.58,16.74,16.74,0,0,0-10-3.07A17.14,17.14,0,0,0,1376.51,551.46Z" transform="translate(-389.69 -475.96)"/><path class="cls-1" d="M1437.53,523.4a8.33,8.33,0,0,1,0-11.78,8.34,8.34,0,0,1,14.24,5.94,8,8,0,0,1-2.43,5.84,8.39,8.39,0,0,1-11.81,0Zm-1.1,14.38h13.94v70.59h-13.94Z" transform="translate(-389.69 -475.96)"/><path class="cls-1" d="M1479.3,605.27a30,30,0,0,1-11.65-12.68q-4.14-8.24-4.13-19.58t4.13-19.49a29.92,29.92,0,0,1,11.68-12.64,37.16,37.16,0,0,1,35.23,0,30.12,30.12,0,0,1,11.61,12.61q4.14,8.18,4.14,19.52t-4.14,19.58a30.07,30.07,0,0,1-11.61,12.68,37.3,37.3,0,0,1-35.26,0Zm27.85-10.14a18.65,18.65,0,0,0,6.61-8.51,35.55,35.55,0,0,0,2.33-13.61,34.91,34.91,0,0,0-2.33-13.45,18.78,18.78,0,0,0-6.61-8.5,19.13,19.13,0,0,0-20.38,0,18.7,18.7,0,0,0-6.64,8.5,34.71,34.71,0,0,0-2.34,13.45,35.35,35.35,0,0,0,2.34,13.61,18.57,18.57,0,0,0,6.64,8.51,19.35,19.35,0,0,0,20.38,0Z" transform="translate(-389.69 -475.96)"/><path class="cls-1" d="M588.37,469.41" transform="translate(-389.69 -475.96)"/><polygon class="cls-1" points="262.2 0 362.12 0 346.18 21.32 262.2 21.32 262.2 0"/><polygon class="cls-1" points="275.21 37.62 275.21 111.28 297.47 134.14 297.47 37.62 275.21 37.62"/><path class="cls-1" d="M503.78,542.11" transform="translate(-389.69 -475.96)"/><polygon class="cls-1" points="0 2.63 99.99 2.63 61.94 27.18 0 2.63"/><polygon class="cls-1" points="24.91 56.92 61.94 56.92 122 134.63 96.56 134.63 24.91 56.92"/><polygon class="cls-1" points="144.74 2.63 204.22 2.63 240.12 59.41 208.7 49.66 144.74 2.63"/><polygon class="cls-1" points="144.74 134.62 204.22 134.62 240.12 77.84 208.7 87.59 144.74 134.62"/></svg>