<svg id="Layer_1" data-name="Layer 1" xmlns="http://www.w3.org/2000/svg" viewBox="0 0 161.45 19.06"><defs><style>.cls-1{fill:#d4d4d4;}.cls-2{fill:#ed6d63;}</style></defs><path class="cls-1" d="M895.66,504.47" transform="translate(-853.01 -504.1)"/><polygon class="cls-1" points="37.13 0 51.28 0 49.02 3.02 37.13 3.02 37.13 0"/><polygon class="cls-1" points="38.97 5.33 38.97 15.76 42.13 19 42.13 5.33 38.97 5.33"/><path class="cls-1" d="M869.17,513.47" transform="translate(-853.01 -504.1)"/><polygon class="cls-1" points="0 0.37 14.16 0.37 8.77 3.85 0 0.37"/><polygon class="cls-1" points="3.53 8.06 8.77 8.06 17.28 19.07 13.67 19.07 3.53 8.06"/><polygon class="cls-1" points="20.5 0.37 28.92 0.37 34 8.41 29.55 7.03 20.5 0.37"/><polygon class="cls-1" points="20.5 19.06 28.92 19.06 34 11.02 29.55 12.4 20.5 19.06"/><path class="cls-2" d="M910.46,522.31a5.7,5.7,0,0,1-2.21-2.44,8.49,8.49,0,0,1-.77-3.74v0a8.35,8.35,0,0,1,.78-3.74,5.7,5.7,0,0,1,2.21-2.44,7.19,7.19,0,0,1,6.8,0,5.73,5.73,0,0,1,2.21,2.43,8.49,8.49,0,0,1,.77,3.74v0a8.49,8.49,0,0,1-.77,3.74,5.75,5.75,0,0,1-2.21,2.44,7.17,7.17,0,0,1-6.81,0Zm5.66-1.66a4.07,4.07,0,0,0,1.46-1.79,6.78,6.78,0,0,0,.51-2.73v0a6.63,6.63,0,0,0-.52-2.74,4,4,0,0,0-1.46-1.78,4,4,0,0,0-2.24-.63,4,4,0,0,0-2.24.62,4.13,4.13,0,0,0-1.47,1.78,6.65,6.65,0,0,0-.52,2.75v0a6.63,6.63,0,0,0,.52,2.74,4.16,4.16,0,0,0,1.47,1.79,4.29,4.29,0,0,0,4.49,0Z" transform="translate(-853.01 -504.1)"/><path class="cls-2" d="M923.75,522.69a2.93,2.93,0,0,1-1.18-1.28,4.48,4.48,0,0,1-.41-2V513h2.07v6a2.53,2.53,0,0,0,.52,1.72,2,2,0,0,0,1.58.6,2.39,2.39,0,0,0,1.25-.32,2.13,2.13,0,0,0,.83-.9,3,3,0,0,0,.28-1.35V513h2v9.94h-2v-1.49h0a3.06,3.06,0,0,1-1.15,1.22,4.05,4.05,0,0,1-3.75,0Z" transform="translate(-853.01 -504.1)"/><path class="cls-2" d="M934.26,522.47a2.81,2.81,0,0,1-.72-2.16v-5.69h-1.43V513h1.43v-2.59h2.09V513h1.87v1.62h-1.87v5.58a1.3,1.3,0,0,0,.33,1,1.5,1.5,0,0,0,1,.28h.3l.25,0v1.57l-.46.06a5.35,5.35,0,0,1-.58,0A3.11,3.11,0,0,1,934.26,522.47Z" transform="translate(-853.01 -504.1)"/><path class="cls-2" d="M940,514.62H938.6V513H940v-1.06a2.89,2.89,0,0,1,.7-2.14,3.11,3.11,0,0,1,2.22-.69c.21,0,.42,0,.63,0l.52.06v1.51l-.33,0h-.38a1.38,1.38,0,0,0-1,.32,1.34,1.34,0,0,0-.33,1v1h2v1.62h-2v8.32H940Z" transform="translate(-853.01 -504.1)"/><path class="cls-2" d="M946.07,511.12a1.16,1.16,0,0,1,0-1.66,1.18,1.18,0,0,1,.85-.34,1.14,1.14,0,0,1,.84.34,1.16,1.16,0,0,1,0,1.66,1.15,1.15,0,0,1-.84.35A1.19,1.19,0,0,1,946.07,511.12Zm-.18,1.88H948v9.94h-2.06Z" transform="translate(-853.01 -504.1)"/><path class="cls-2" d="M951.54,522.47a2.78,2.78,0,0,1-.73-2.16v-5.69h-1.42V513h1.42v-2.59h2.1V513h1.86v1.62h-1.86v5.58a1.3,1.3,0,0,0,.33,1,1.47,1.47,0,0,0,1,.28h.3l.25,0v1.57l-.45.06a5.41,5.41,0,0,1-.59,0A3.1,3.1,0,0,1,951.54,522.47Z" transform="translate(-853.01 -504.1)"/><path class="cls-2" d="M963,522.7a4.22,4.22,0,0,1-1.82-1.32,3.75,3.75,0,0,1-.76-2.07v-.14h2.07l0,.12a2,2,0,0,0,.53,1.08,2.64,2.64,0,0,0,1.13.71,4.89,4.89,0,0,0,1.6.24,4.4,4.4,0,0,0,1.58-.25,2.33,2.33,0,0,0,1-.73,1.75,1.75,0,0,0,.36-1.1h0a1.61,1.61,0,0,0-.59-1.31,4.62,4.62,0,0,0-2-.78l-1.49-.31a6.09,6.09,0,0,1-3-1.37,3.22,3.22,0,0,1-1-2.45h0a3.47,3.47,0,0,1,.64-2.05,4.28,4.28,0,0,1,1.75-1.38,6.22,6.22,0,0,1,2.56-.49,6.13,6.13,0,0,1,2.5.48,4.16,4.16,0,0,1,1.72,1.35,3.75,3.75,0,0,1,.71,2v.16h-2.07l0-.13a2,2,0,0,0-.47-1.09,2.32,2.32,0,0,0-1-.7,4.41,4.41,0,0,0-2.9,0,2.26,2.26,0,0,0-1,.7,1.63,1.63,0,0,0-.34,1h0a1.51,1.51,0,0,0,.61,1.25,4.64,4.64,0,0,0,1.88.76l1.48.32a6.32,6.32,0,0,1,3.07,1.35,3.28,3.28,0,0,1,1,2.49h0a3.76,3.76,0,0,1-.62,2.16,4,4,0,0,1-1.8,1.41,7.93,7.93,0,0,1-5.46,0Z" transform="translate(-853.01 -504.1)"/><path class="cls-2" d="M974,522.47a2.81,2.81,0,0,1-.72-2.16v-5.69h-1.43V513h1.43v-2.59h2.09V513h1.87v1.62h-1.87v5.58a1.26,1.26,0,0,0,.34,1,1.45,1.45,0,0,0,1,.28h.3l.25,0v1.57l-.46.06a5.35,5.35,0,0,1-.58,0A3.11,3.11,0,0,1,974,522.47Z" transform="translate(-853.01 -504.1)"/><path class="cls-2" d="M980.63,522.69a2.93,2.93,0,0,1-1.18-1.28,4.48,4.48,0,0,1-.41-2V513h2.06v6a2.53,2.53,0,0,0,.53,1.72,2,2,0,0,0,1.58.6,2.39,2.39,0,0,0,1.25-.32,2.13,2.13,0,0,0,.83-.9,3,3,0,0,0,.28-1.35V513h2v9.94h-2v-1.49h0a3.06,3.06,0,0,1-1.15,1.22,4.05,4.05,0,0,1-3.75,0Z" transform="translate(-853.01 -504.1)"/><path class="cls-2" d="M991.35,522.51a4.13,4.13,0,0,1-1.44-1.8,6.73,6.73,0,0,1-.51-2.74h0a6.73,6.73,0,0,1,.51-2.74,4.09,4.09,0,0,1,1.45-1.78,3.77,3.77,0,0,1,2.17-.63,3.41,3.41,0,0,1,3.14,1.88h0v-5.38h2.06v13.63h-2.06v-1.68h0a3.4,3.4,0,0,1-3.12,1.88A3.87,3.87,0,0,1,991.35,522.51Zm4.11-1.56a2.76,2.76,0,0,0,.92-1.18,4.38,4.38,0,0,0,.34-1.8h0a4.46,4.46,0,0,0-.34-1.79,2.85,2.85,0,0,0-.93-1.18,2.26,2.26,0,0,0-1.36-.42,2.4,2.4,0,0,0-1.39.41,2.56,2.56,0,0,0-.9,1.17,4.72,4.72,0,0,0-.32,1.81h0a4.78,4.78,0,0,0,.32,1.82,2.65,2.65,0,0,0,.9,1.18,2.39,2.39,0,0,0,1.39.4A2.32,2.32,0,0,0,995.46,521Z" transform="translate(-853.01 -504.1)"/><path class="cls-2" d="M1001.31,511.12a1.16,1.16,0,0,1,0-1.66,1.21,1.21,0,0,1,1.68,0,1.16,1.16,0,0,1,0,1.66,1.18,1.18,0,0,1-1.68,0Zm-.19,1.88h2.06v9.94h-2.06Z" transform="translate(-853.01 -504.1)"/><path class="cls-2" d="M1007.26,522.51a4.21,4.21,0,0,1-1.65-1.79A6,6,0,0,1,1005,518v0a6,6,0,0,1,.59-2.74,4.33,4.33,0,0,1,1.66-1.78,5.25,5.25,0,0,1,5,0,4.16,4.16,0,0,1,1.65,1.77,5.9,5.9,0,0,1,.59,2.75v0a5.92,5.92,0,0,1-.59,2.76,4.24,4.24,0,0,1-1.65,1.78,4.73,4.73,0,0,1-2.47.63A4.8,4.8,0,0,1,1007.26,522.51Zm3.88-1.5a2.56,2.56,0,0,0,.9-1.17,4.77,4.77,0,0,0,.33-1.87v0a4.76,4.76,0,0,0-.33-1.86,2.58,2.58,0,0,0-.91-1.17,2.49,2.49,0,0,0-1.39-.4,2.41,2.41,0,0,0-1.38.41,2.67,2.67,0,0,0-.92,1.17,4.67,4.67,0,0,0-.33,1.85v0a4.77,4.77,0,0,0,.33,1.87,2.53,2.53,0,0,0,.92,1.17,2.43,2.43,0,0,0,1.4.41A2.37,2.37,0,0,0,1011.14,521Z" transform="translate(-853.01 -504.1)"/></svg>