<svg id="Layer_1" data-name="Layer 1" xmlns="http://www.w3.org/2000/svg" viewBox="0 0 152.45 18"><defs><style>.cls-1{fill:#1d1d1f;}.cls-2{fill:#ed6d63;}</style></defs><g id="Group_419" data-name="Group 419"><g id="Group_418" data-name="Group 418"><path id="Path_3518" data-name="Path 3518" class="cls-1" d="M923.76,530.94" transform="translate(-883.49 -530.58)"/><path id="Path_3519" data-name="Path 3519" class="cls-1" d="M918.55,530.58h13.36l-2.14,2.86H918.55Z" transform="translate(-883.49 -530.58)"/><path id="Path_3520" data-name="Path 3520" class="cls-1" d="M920.29,535.61v9.85l3,3.06V535.61Z" transform="translate(-883.49 -530.58)"/><path id="Path_3521" data-name="Path 3521" class="cls-1" d="M898.74,539.43" transform="translate(-883.49 -530.58)"/><path id="Path_3522" data-name="Path 3522" class="cls-1" d="M883.49,530.94h13.37l-5.09,3.28Z" transform="translate(-883.49 -530.58)"/><path id="Path_3523" data-name="Path 3523" class="cls-1" d="M886.82,538.2h4.95l8,10.38h-3.4Z" transform="translate(-883.49 -530.58)"/><path id="Path_3524" data-name="Path 3524" class="cls-1" d="M902.84,530.94h7.95l4.81,7.59-4.21-1.3Z" transform="translate(-883.49 -530.58)"/><path id="Path_3525" data-name="Path 3525" class="cls-1" d="M902.84,548.59h7.95L915.6,541l-4.21,1.3Z" transform="translate(-883.49 -530.58)"/></g></g><g id="Group_420" data-name="Group 420"><path id="Path_3526" data-name="Path 3526" class="cls-2" d="M937.73,547.78a5.32,5.32,0,0,1-2.08-2.3,7.88,7.88,0,0,1-.74-3.54v0a7.81,7.81,0,0,1,.74-3.53,5.29,5.29,0,0,1,2.09-2.3,6.77,6.77,0,0,1,6.42,0,5.35,5.35,0,0,1,2.08,2.29,7.84,7.84,0,0,1,.74,3.53v0a7.81,7.81,0,0,1-.74,3.53,5.26,5.26,0,0,1-2.08,2.3,6.1,6.1,0,0,1-3.21.82A6.17,6.17,0,0,1,937.73,547.78Zm5.35-1.57a3.78,3.78,0,0,0,1.37-1.69,6.36,6.36,0,0,0,.48-2.58v0a6.36,6.36,0,0,0-.48-2.58,3.88,3.88,0,0,0-1.39-1.69,4.07,4.07,0,0,0-4.23,0,3.84,3.84,0,0,0-1.38,1.68,6.07,6.07,0,0,0-.49,2.59v0a6.22,6.22,0,0,0,.49,2.59,3.93,3.93,0,0,0,1.38,1.69,4.08,4.08,0,0,0,4.25,0Z" transform="translate(-883.49 -530.58)"/><path id="Path_3527" data-name="Path 3527" class="cls-2" d="M950.28,548.14a2.82,2.82,0,0,1-1.11-1.21,4.33,4.33,0,0,1-.39-1.87V539h2v5.71a2.41,2.41,0,0,0,.5,1.63,1.83,1.83,0,0,0,1.49.56,2.23,2.23,0,0,0,1.18-.3,2,2,0,0,0,.78-.85,2.82,2.82,0,0,0,.27-1.27V539h1.94v9.38H955V547h0a3,3,0,0,1-1.09,1.16,3.38,3.38,0,0,1-1.79.44A3.43,3.43,0,0,1,950.28,548.14Z" transform="translate(-883.49 -530.58)"/><path id="Path_3528" data-name="Path 3528" class="cls-2" d="M960.2,547.93a2.67,2.67,0,0,1-.68-2v-5.37h-1.35V539h1.35v-2.45h2V539h1.76v1.53H961.5v5.26a1.24,1.24,0,0,0,.31,1,1.41,1.41,0,0,0,.93.26H963l.24,0v1.49l-.43,0a5.07,5.07,0,0,1-.55,0A3,3,0,0,1,960.2,547.93Z" transform="translate(-883.49 -530.58)"/><path id="Path_3529" data-name="Path 3529" class="cls-2" d="M965.59,540.52H964.3V539h1.29v-1a2.74,2.74,0,0,1,.67-2,2.91,2.91,0,0,1,2.1-.65l.59,0,.49.06v1.43l-.32,0h-.35a1.34,1.34,0,0,0-1,.31,1.27,1.27,0,0,0-.31.93v1h1.9v1.53h-1.86v7.85h-1.95Z" transform="translate(-883.49 -530.58)"/><path id="Path_3530" data-name="Path 3530" class="cls-2" d="M971.36,537.22a1.1,1.1,0,0,1,0-1.56l0,0a1.14,1.14,0,0,1,1.59,0,1.13,1.13,0,0,1,0,1.58A1.14,1.14,0,0,1,971.36,537.22Zm-.18,1.77h1.94v9.38h-1.94Z" transform="translate(-883.49 -530.58)"/><path id="Path_3531" data-name="Path 3531" class="cls-2" d="M976.51,547.93a2.67,2.67,0,0,1-.68-2v-5.37h-1.34V539h1.34v-2.45h2V539h1.76v1.53h-1.76v5.26a1.24,1.24,0,0,0,.31,1,1.41,1.41,0,0,0,.93.26h.28l.24,0v1.49l-.43,0a5.07,5.07,0,0,1-.55,0A3,3,0,0,1,976.51,547.93Z" transform="translate(-883.49 -530.58)"/><path id="Path_3532" data-name="Path 3532" class="cls-2" d="M987.31,548.15a4.12,4.12,0,0,1-1.72-1.25,3.57,3.57,0,0,1-.71-1.95v-.14h2v.12a1.89,1.89,0,0,0,.5,1,2.66,2.66,0,0,0,1.07.67,4.6,4.6,0,0,0,1.52.23,4.14,4.14,0,0,0,1.48-.24,2.19,2.19,0,0,0,1-.69,1.72,1.72,0,0,0,.35-1h0a1.55,1.55,0,0,0-.56-1.24,4.55,4.55,0,0,0-1.84-.74l-1.4-.29a5.7,5.7,0,0,1-2.82-1.29,3,3,0,0,1-.93-2.31h0a3.33,3.33,0,0,1,.61-1.93,3.92,3.92,0,0,1,1.65-1.31,5.89,5.89,0,0,1,2.42-.46,5.64,5.64,0,0,1,2.36.45,3.91,3.91,0,0,1,1.63,1.27,3.64,3.64,0,0,1,.67,1.91v.14h-2l0-.12a1.87,1.87,0,0,0-.44-1,2.3,2.3,0,0,0-.94-.66,4.12,4.12,0,0,0-2.73,0,2.06,2.06,0,0,0-.91.66,1.53,1.53,0,0,0-.32,1h0a1.43,1.43,0,0,0,.57,1.18,4.25,4.25,0,0,0,1.78.71l1.4.31a5.91,5.91,0,0,1,2.9,1.28,3.12,3.12,0,0,1,.91,2.35h0a3.43,3.43,0,0,1-.6,2,3.75,3.75,0,0,1-1.69,1.33,6.77,6.77,0,0,1-2.63.47A6.84,6.84,0,0,1,987.31,548.15Z" transform="translate(-883.49 -530.58)"/><path id="Path_3533" data-name="Path 3533" class="cls-2" d="M997.72,547.93a2.63,2.63,0,0,1-.69-2v-5.37h-1.34V539H997v-2.45h2V539h1.76v1.53H999v5.26a1.24,1.24,0,0,0,.31,1,1.41,1.41,0,0,0,.93.26h.28l.24,0v1.49l-.43,0-.55,0A3,3,0,0,1,997.72,547.93Z" transform="translate(-883.49 -530.58)"/><path id="Path_3534" data-name="Path 3534" class="cls-2" d="M1004,548.14a2.88,2.88,0,0,1-1.11-1.21,4.18,4.18,0,0,1-.38-1.87V539h1.94v5.71a2.47,2.47,0,0,0,.5,1.63,1.87,1.87,0,0,0,1.5.56,2.14,2.14,0,0,0,1.18-.3,2,2,0,0,0,.77-.85,2.83,2.83,0,0,0,.28-1.27V539h1.93v9.38h-1.93V547h0a2.87,2.87,0,0,1-1.08,1.16,3.42,3.42,0,0,1-1.79.44A3.49,3.49,0,0,1,1004,548.14Z" transform="translate(-883.49 -530.58)"/><path id="Path_3535" data-name="Path 3535" class="cls-2" d="M1014.11,548a3.81,3.81,0,0,1-1.36-1.69,6.38,6.38,0,0,1-.49-2.59h0a6.38,6.38,0,0,1,.49-2.59,3.93,3.93,0,0,1,1.36-1.68,3.59,3.59,0,0,1,2.06-.59,3.3,3.3,0,0,1,1.76.47,3.2,3.2,0,0,1,1.2,1.3h0V535.5h1.94v12.87h-1.94v-1.59h0a3.16,3.16,0,0,1-2.94,1.78A3.58,3.58,0,0,1,1014.11,548Zm3.88-1.47a2.61,2.61,0,0,0,.87-1.12,4.24,4.24,0,0,0,.32-1.69h0a4.24,4.24,0,0,0-.32-1.69,2.75,2.75,0,0,0-.88-1.12,2.15,2.15,0,0,0-1.28-.39,2.17,2.17,0,0,0-1.31.39,2.39,2.39,0,0,0-.86,1.1,4.57,4.57,0,0,0-.3,1.71h0a4.62,4.62,0,0,0,.3,1.72,2.47,2.47,0,0,0,.86,1.11,2.23,2.23,0,0,0,1.31.38,2.14,2.14,0,0,0,1.29-.4Z" transform="translate(-883.49 -530.58)"/><path id="Path_3536" data-name="Path 3536" class="cls-2" d="M1023.51,537.22a1.11,1.11,0,0,1,0-1.57h0a1.14,1.14,0,0,1,1.59,0,1.11,1.11,0,0,1,0,1.58A1.14,1.14,0,0,1,1023.51,537.22Zm-.18,1.77h1.95v9.38h-1.95Z" transform="translate(-883.49 -530.58)"/><path id="Path_3537" data-name="Path 3537" class="cls-2" d="M1029.13,548a4.1,4.1,0,0,1-1.56-1.69,5.69,5.69,0,0,1-.55-2.6v0a5.68,5.68,0,0,1,.56-2.59,4,4,0,0,1,1.56-1.67,4.92,4.92,0,0,1,4.67,0,4,4,0,0,1,1.56,1.68,5.63,5.63,0,0,1,.56,2.59v0a5.57,5.57,0,0,1-.56,2.6,4,4,0,0,1-1.55,1.69,4.94,4.94,0,0,1-4.69,0Zm3.66-1.42a2.42,2.42,0,0,0,.86-1.11,4.6,4.6,0,0,0,.3-1.76v0a4.55,4.55,0,0,0-.3-1.75,2.44,2.44,0,0,0-.87-1.11,2.26,2.26,0,0,0-1.31-.38,2.32,2.32,0,0,0-1.3.38,2.56,2.56,0,0,0-.87,1.11,4.37,4.37,0,0,0-.31,1.75v0a4.6,4.6,0,0,0,.31,1.76,2.44,2.44,0,0,0,.87,1.11,2.21,2.21,0,0,0,1.32.38,2.15,2.15,0,0,0,1.3-.38Z" transform="translate(-883.49 -530.58)"/></g></svg>